<svg xmlns="http://www.w3.org/2000/svg" viewBox="0 0 512 512">
  <circle cx="256" cy="256" r="256" fill="#D4AF37"/>
  
  <path fill="#FFFFFF" d="M256 64c-22.1 0-40 17.9-40 40 0 3.4.4 6.7 1.2 9.9-24.8 5.7-44.4 25.3-50.1 50.1-3.2-.8-6.5-1.2-9.9-1.2-22.1 0-40 17.9-40 40 0 18.4 12.5 33.9 29.5 38.6L128 368c0 26.5 21.5 48 48 48h160c26.5 0 48-21.5 48-48l-18.7-126.6c17-4.7 29.5-20.2 29.5-38.6 0-22.1-17.9-40-40-40-3.4 0-6.7.4-9.9 1.2-5.7-24.8-25.3-44.4-50.1-50.1.8-3.2 1.2-6.5 1.2-9.9 0-22.1-17.9-40-40-40zM176 368l-16-112h192l-16 112H176z"/>
</svg>